<mxfile compressed="false" host="Electron" modified="2022-01-08T16:31:52.351Z" agent="5.0 (Windows NT 10.0; Win64; x64) AppleWebKit/537.36 (KHTML, like Gecko) draw.io/16.1.2 Chrome/96.0.4664.55 Electron/16.0.5 Safari/537.36" version="16.1.2" etag="PdBxZsVCVta9hTpI0Bee" type="device">
  <diagram id="b1dded1b-90b4-4707-a890-49a621c8386f" name="Drawio">
    <mxGraphModel dx="1102" dy="1025" grid="1" gridSize="10" guides="1" tooltips="1" connect="1" arrows="1" fold="1" page="1" pageScale="1" pageWidth="850" pageHeight="1100" math="0" shadow="0">
      <root>
        <mxCell id="0" />
        <mxCell id="1" parent="0" />
        <UserObject label="1.a" link="elements/one-a/index.html" id="a7ac1715_1786_4017_a93e_0594361446ad">
          <mxCell style="recursiveResize=0;fillColor=#fefece" parent="1" vertex="1">
            <mxGeometry x="38" y="140" width="35" height="30" as="geometry" />
          </mxCell>
        </UserObject>
        <UserObject id="6c3fd5f0_6c2e_4ca2_88ff_06cd3a6a6134">
          <mxCell style="rhombus;recursiveResize=0;fillColor=#fefece" parent="1" vertex="1">
            <mxGeometry x="190" y="220.5" width="30" height="30" as="geometry" />
          </mxCell>
        </UserObject>
        <UserObject id="9658f8b7_d909_4b6e_9e83_4a96c3d8f511">
          <mxCell style="recursiveResize=0;fillColor=#fefece" parent="1" vertex="1">
            <mxGeometry x="86" y="90" width="14" height="30" as="geometry" />
          </mxCell>
        </UserObject>
        <UserObject label="Install stuff" link="elements/service/index.html" id="0a726075_c3bd_4f9d_aaea_46be2b973365">
          <mxCell style="recursiveResize=0;fillColor=#fefece" parent="1" vertex="1">
            <mxGeometry x="152.5" y="290" width="105" height="30" as="geometry" />
          </mxCell>
        </UserObject>
        <UserObject id="30fc73f7_3785_44d3_9d4d_738e48c0a33b">
          <mxCell style="recursiveResize=0;fillColor=#fefece" parent="1" vertex="1">
            <mxGeometry x="17" y="10" width="14" height="30" as="geometry" />
          </mxCell>
        </UserObject>
        <UserObject label="One" link="elements/one/index.html" id="86aad619_7e2f_4f56_8567_fb681ffb051e">
          <mxCell style="recursiveResize=0;fillColor=#fefece" parent="1" vertex="1">
            <mxGeometry x="33" y="241" width="35" height="30" as="geometry" />
          </mxCell>
        </UserObject>
        <UserObject id="3a39f911_5f7f_4bae_b5f0_12cfb5286de4">
          <mxCell style="recursiveResize=0;fillColor=#fefece" parent="1" vertex="1">
            <mxGeometry x="710" y="56" width="14" height="30" as="geometry" />
          </mxCell>
        </UserObject>
        <UserObject label="Three" link="elements/three/index.html" id="3e6ecf3a_754d_4657_983f_487f30cc9047">
          <mxCell style="recursiveResize=0;fillColor=#fefece" parent="1" vertex="1">
            <mxGeometry x="330" y="26" width="49" height="30" as="geometry" />
          </mxCell>
        </UserObject>
        <UserObject label="1.b" link="elements/one-b/index.html" id="77ea713c_645a_400b_9248_7076970decfa">
          <mxCell style="recursiveResize=0;fillColor=#fefece" parent="1" vertex="1">
            <mxGeometry x="34" y="86" width="35" height="30" as="geometry" />
          </mxCell>
        </UserObject>
        <UserObject label="Two" link="elements/two/index.html" id="b71fa7a4_c565_491b_ac4b_e9e9d99ed8e7">
          <mxCell style="recursiveResize=0;fillColor=#fefece;verticalAlign=top" parent="1" vertex="1">
            <mxGeometry x="300" y="100" width="170" height="170" as="geometry" />
          </mxCell>
        </UserObject>
        <UserObject id="f4e9a50e_d733_470a_a3ce_e491052131c7">
          <mxCell style="recursiveResize=0;fillColor=#fefece" parent="b71fa7a4_c565_491b_ac4b_e9e9d99ed8e7" vertex="1">
            <mxGeometry x="10" y="85" width="14" height="30" as="geometry" />
          </mxCell>
        </UserObject>
        <UserObject label="2.3" link="elements/two/elements/three/index.html" id="3d8c2a0b_4b09_4b5b_9548_bc6bf75d253d">
          <mxCell style="recursiveResize=0;fillColor=#fefece" parent="b71fa7a4_c565_491b_ac4b_e9e9d99ed8e7" vertex="1">
            <mxGeometry x="61" y="130" width="35" height="30" as="geometry" />
          </mxCell>
        </UserObject>
        <UserObject label="2.1" link="elements/two/elements/one/index.html" id="038e378a_0d79_4c3d_9a88_77fc43b13fdc">
          <mxCell style="recursiveResize=0;fillColor=#fefece" parent="b71fa7a4_c565_491b_ac4b_e9e9d99ed8e7" vertex="1">
            <mxGeometry x="61" y="40" width="35" height="30" as="geometry" />
          </mxCell>
        </UserObject>
        <UserObject label="2.2" link="elements/two/elements/two/index.html" id="315a678a_c24b_41a8_9223_db41a854bed9">
          <mxCell style="recursiveResize=0;fillColor=#fefece" parent="b71fa7a4_c565_491b_ac4b_e9e9d99ed8e7" vertex="1">
            <mxGeometry x="61" y="85" width="35" height="30" as="geometry" />
          </mxCell>
        </UserObject>
        <UserObject id="b21874eb_f0df_4771_bacb_5cb1880e9c72">
          <mxCell style="recursiveResize=0;fillColor=#fefece" parent="b71fa7a4_c565_491b_ac4b_e9e9d99ed8e7" vertex="1">
            <mxGeometry x="136" y="85" width="14" height="30" as="geometry" />
          </mxCell>
        </UserObject>
        <UserObject id="15">
          <mxCell style="strokeColor=#000000" parent="b71fa7a4_c565_491b_ac4b_e9e9d99ed8e7" source="f4e9a50e_d733_470a_a3ce_e491052131c7" target="315a678a_c24b_41a8_9223_db41a854bed9" edge="1">
            <mxGeometry relative="1" as="geometry" />
          </mxCell>
        </UserObject>
        <UserObject id="16">
          <mxCell style="strokeColor=#000000" parent="b71fa7a4_c565_491b_ac4b_e9e9d99ed8e7" source="f4e9a50e_d733_470a_a3ce_e491052131c7" target="038e378a_0d79_4c3d_9a88_77fc43b13fdc" edge="1">
            <mxGeometry relative="1" as="geometry" />
          </mxCell>
        </UserObject>
        <UserObject id="17">
          <mxCell style="strokeColor=#000000" parent="b71fa7a4_c565_491b_ac4b_e9e9d99ed8e7" source="f4e9a50e_d733_470a_a3ce_e491052131c7" target="3d8c2a0b_4b09_4b5b_9548_bc6bf75d253d" edge="1">
            <mxGeometry relative="1" as="geometry" />
          </mxCell>
        </UserObject>
        <UserObject id="18">
          <mxCell style="strokeColor=#000000" parent="b71fa7a4_c565_491b_ac4b_e9e9d99ed8e7" source="3d8c2a0b_4b09_4b5b_9548_bc6bf75d253d" target="b21874eb_f0df_4771_bacb_5cb1880e9c72" edge="1">
            <mxGeometry relative="1" as="geometry" />
          </mxCell>
        </UserObject>
        <UserObject id="19">
          <mxCell style="strokeColor=#000000" parent="b71fa7a4_c565_491b_ac4b_e9e9d99ed8e7" source="038e378a_0d79_4c3d_9a88_77fc43b13fdc" target="b21874eb_f0df_4771_bacb_5cb1880e9c72" edge="1">
            <mxGeometry relative="1" as="geometry" />
          </mxCell>
        </UserObject>
        <UserObject id="20">
          <mxCell style="strokeColor=#000000" parent="b71fa7a4_c565_491b_ac4b_e9e9d99ed8e7" source="315a678a_c24b_41a8_9223_db41a854bed9" target="b21874eb_f0df_4771_bacb_5cb1880e9c72" edge="1">
            <mxGeometry relative="1" as="geometry" />
          </mxCell>
        </UserObject>
        <UserObject id="2">
          <mxCell style="strokeColor=#000000" parent="1" source="a7ac1715_1786_4017_a93e_0594361446ad" target="9658f8b7_d909_4b6e_9e83_4a96c3d8f511" edge="1">
            <mxGeometry relative="1" as="geometry" />
          </mxCell>
        </UserObject>
        <UserObject id="3">
          <mxCell style="strokeColor=#000000" parent="1" source="6c3fd5f0_6c2e_4ca2_88ff_06cd3a6a6134" target="30fc73f7_3785_44d3_9d4d_738e48c0a33b" edge="1">
            <mxGeometry relative="1" as="geometry" />
          </mxCell>
        </UserObject>
        <UserObject id="4">
          <mxCell style="strokeColor=#000000" parent="1" source="6c3fd5f0_6c2e_4ca2_88ff_06cd3a6a6134" target="0a726075_c3bd_4f9d_aaea_46be2b973365" edge="1">
            <mxGeometry relative="1" as="geometry" />
          </mxCell>
        </UserObject>
        <UserObject id="5">
          <mxCell style="strokeColor=#000000" parent="1" source="6c3fd5f0_6c2e_4ca2_88ff_06cd3a6a6134" target="86aad619_7e2f_4f56_8567_fb681ffb051e" edge="1">
            <mxGeometry relative="1" as="geometry" />
          </mxCell>
        </UserObject>
        <UserObject id="6">
          <mxCell style="strokeColor=#000000" parent="1" source="6c3fd5f0_6c2e_4ca2_88ff_06cd3a6a6134" target="b71fa7a4_c565_491b_ac4b_e9e9d99ed8e7" edge="1">
            <mxGeometry relative="1" as="geometry" />
          </mxCell>
        </UserObject>
        <UserObject id="7">
          <mxCell style="strokeColor=#000000" parent="1" source="9658f8b7_d909_4b6e_9e83_4a96c3d8f511" target="77ea713c_645a_400b_9248_7076970decfa" edge="1">
            <mxGeometry relative="1" as="geometry" />
          </mxCell>
        </UserObject>
        <UserObject id="8">
          <mxCell style="strokeColor=#000000" parent="1" source="9658f8b7_d909_4b6e_9e83_4a96c3d8f511" target="b71fa7a4_c565_491b_ac4b_e9e9d99ed8e7" edge="1">
            <mxGeometry relative="1" as="geometry" />
          </mxCell>
        </UserObject>
        <UserObject id="9">
          <mxCell style="strokeColor=#000000" parent="1" source="30fc73f7_3785_44d3_9d4d_738e48c0a33b" target="9658f8b7_d909_4b6e_9e83_4a96c3d8f511" edge="1">
            <mxGeometry relative="1" as="geometry" />
          </mxCell>
        </UserObject>
        <UserObject id="10">
          <mxCell style="strokeColor=#000000" parent="1" source="30fc73f7_3785_44d3_9d4d_738e48c0a33b" target="a7ac1715_1786_4017_a93e_0594361446ad" edge="1">
            <mxGeometry relative="1" as="geometry" />
          </mxCell>
        </UserObject>
        <UserObject id="11">
          <mxCell style="strokeColor=#000000" parent="1" source="30fc73f7_3785_44d3_9d4d_738e48c0a33b" target="3e6ecf3a_754d_4657_983f_487f30cc9047" edge="1">
            <mxGeometry relative="1" as="geometry" />
          </mxCell>
        </UserObject>
        <UserObject id="12">
          <mxCell style="strokeColor=#000000" parent="1" source="86aad619_7e2f_4f56_8567_fb681ffb051e" target="a7ac1715_1786_4017_a93e_0594361446ad" edge="1">
            <mxGeometry relative="1" as="geometry" />
          </mxCell>
        </UserObject>
        <UserObject id="13">
          <mxCell style="strokeColor=#000000" parent="1" source="3e6ecf3a_754d_4657_983f_487f30cc9047" target="3a39f911_5f7f_4bae_b5f0_12cfb5286de4" edge="1">
            <mxGeometry relative="1" as="geometry" />
          </mxCell>
        </UserObject>
        <UserObject id="14">
          <mxCell style="strokeColor=#000000" parent="1" source="77ea713c_645a_400b_9248_7076970decfa" target="3a39f911_5f7f_4bae_b5f0_12cfb5286de4" edge="1">
            <mxGeometry relative="1" as="geometry" />
          </mxCell>
        </UserObject>
        <UserObject id="21">
          <mxCell style="strokeColor=#000000" parent="1" source="b71fa7a4_c565_491b_ac4b_e9e9d99ed8e7" target="3a39f911_5f7f_4bae_b5f0_12cfb5286de4" edge="1">
            <mxGeometry relative="1" as="geometry" />
          </mxCell>
        </UserObject>
      </root>
    </mxGraphModel>
  </diagram>
</mxfile>
